<?xml version="1.0" encoding="UTF-8" standalone="no"?>
<svg
   xmlns:dc="http://purl.org/dc/elements/1.1/"
   xmlns:cc="http://creativecommons.org/ns#"
   xmlns:rdf="http://www.w3.org/1999/02/22-rdf-syntax-ns#"
   xmlns:svg="http://www.w3.org/2000/svg"
   xmlns="http://www.w3.org/2000/svg"
   xmlns:sodipodi="http://sodipodi.sourceforge.net/DTD/sodipodi-0.dtd"
   xmlns:inkscape="http://www.inkscape.org/namespaces/inkscape"
   inkscape:version="1.0 (4035a4f, 2020-05-01)"
   sodipodi:docname="omega_d2_6x9.svg"
   id="svg8"
   version="1.1"
   viewBox="0 0 215.9 279.4"
   height="11in"
   width="8.5in">
  <defs
     id="defs2">
    <rect
       id="rect427"
       height="13.526167"
       width="30.342483"
       y="150.25013"
       x="60.319394" />
    <rect
       id="rect889"
       height="8.0985939"
       width="112.16552"
       y="235.66907"
       x="61.54931" />
    <rect
       id="rect12"
       height="25.10564"
       width="41.707756"
       y="20.246485"
       x="16.602118" />
  </defs>
  <sodipodi:namedview
     units="in"
     inkscape:window-maximized="1"
     inkscape:window-y="23"
     inkscape:window-x="0"
     inkscape:window-height="1005"
     inkscape:window-width="1680"
     showgrid="false"
     inkscape:document-rotation="0"
     inkscape:current-layer="layer1"
     inkscape:document-units="in"
     inkscape:cy="459.07965"
     inkscape:cx="157.37954"
     inkscape:zoom="0.72375147"
     inkscape:pageshadow="2"
     inkscape:pageopacity="0.0"
     borderopacity="1.0"
     bordercolor="#666666"
     pagecolor="#ffffff"
     id="base" />
  <metadata
     id="metadata5">
    <rdf:RDF>
      <cc:Work
         rdf:about="">
        <dc:format>image/svg+xml</dc:format>
        <dc:type
           rdf:resource="http://purl.org/dc/dcmitype/StillImage" />
        <dc:title />
      </cc:Work>
    </rdf:RDF>
  </metadata>
  <g
     id="layer1"
     inkscape:groupmode="layer"
     inkscape:label="Layer 1">
    <g
       style="font-style:normal;font-weight:normal;font-size:10.5833px;line-height:1.25;font-family:sans-serif;text-align:center;text-anchor:middle;white-space:pre;shape-inside:url(#rect427);fill:#ff0000;fill-opacity:1;stroke:none"
       id="text425"
       transform="translate(7.4083337,3.1750001)"
       aria-label="6x9">
      <path
         id="path431"
         style="text-align:center;text-anchor:middle;fill:#ff0000"
         d="m 71.775687,157.4095 q 0,1.17305 -0.775144,1.91719 -0.769976,0.73897 -1.891351,0.73897 -0.568439,0 -1.033525,-0.1757 -0.465087,-0.1757 -0.821653,-0.52193 -0.444416,-0.42891 -0.687295,-1.13688 -0.23771,-0.70796 -0.23771,-1.70531 0,-1.02319 0.21704,-1.81384 0.222208,-0.79065 0.702797,-1.40559 0.454751,-0.58395 1.173052,-0.90951 0.7183,-0.33072 1.674311,-0.33072 0.30489,0 0.511595,0.0258 0.206705,0.0258 0.418577,0.093 v 0.98702 h -0.05168 q -0.144693,-0.0775 -0.439248,-0.1447 -0.289387,-0.0723 -0.594277,-0.0723 -1.11104,0 -1.772496,0.69763 -0.661456,0.69246 -0.769977,1.87585 0.434081,-0.26355 0.852659,-0.39791 0.423745,-0.13953 0.976681,-0.13953 0.490925,0 0.862994,0.093 0.377237,0.0879 0.769976,0.36173 0.454752,0.31523 0.682127,0.79582 0.232543,0.48059 0.232543,1.16788 z m -1.049028,0.0413 q 0,-0.48059 -0.144693,-0.79581 -0.139526,-0.31523 -0.465087,-0.54777 -0.237711,-0.16536 -0.527098,-0.21704 -0.289387,-0.0517 -0.604612,-0.0517 -0.439248,0 -0.816485,0.10336 -0.377237,0.10335 -0.775144,0.32039 -0.01033,0.11369 -0.0155,0.22221 -0.0052,0.10335 -0.0052,0.26355 0,0.81648 0.165364,1.2919 0.170532,0.47026 0.465087,0.74414 0.237711,0.22738 0.511595,0.3359 0.279052,0.10335 0.604612,0.10335 0.749306,0 1.178219,-0.45475 0.428913,-0.45992 0.428913,-1.31775 z" />
      <path
         id="path433"
         style="text-align:center;text-anchor:middle;fill:#ff0000"
         d="m 78.312735,159.90547 h -1.224727 l -1.638138,-2.21692 -1.648473,2.21692 h -1.13171 l 2.253085,-2.87837 -2.232415,-2.89387 h 1.224728 l 1.627802,2.18073 1.63297,-2.18073 h 1.136878 l -2.268588,2.84219 z" />
      <path
         id="path435"
         style="text-align:center;text-anchor:middle;fill:#ff0000"
         d="m 84.653413,155.59566 q 0,1.00769 -0.232543,1.82934 -0.227376,0.82166 -0.692462,1.40043 -0.470254,0.58911 -1.178219,0.9095 -0.707965,0.3204 -1.663976,0.3204 -0.268716,0 -0.506427,-0.031 -0.237711,-0.0258 -0.423745,-0.0878 v -0.98702 h 0.05168 q 0.149861,0.0775 0.423745,0.14987 0.273884,0.0672 0.60978,0.0672 1.142046,0 1.787999,-0.68212 0.651121,-0.6873 0.754474,-1.89135 -0.48059,0.28938 -0.904335,0.41341 -0.423746,0.12402 -0.925005,0.12402 -0.475422,0 -0.862994,-0.093 -0.382404,-0.093 -0.769976,-0.36173 -0.454752,-0.31523 -0.687295,-0.80098 -0.227375,-0.48576 -0.227375,-1.16272 0,-1.17822 0.775144,-1.91719 0.775144,-0.73897 1.891351,-0.73897 0.558104,0 1.033525,0.1757 0.475422,0.17053 0.831988,0.51676 0.439249,0.42892 0.676959,1.10587 0.237711,0.6718 0.237711,1.74149 z m -1.04386,-0.2222 q 0,-0.80099 -0.165364,-1.28674 -0.165364,-0.48576 -0.454752,-0.75448 -0.242878,-0.23254 -0.52193,-0.33072 -0.279052,-0.10336 -0.604612,-0.10336 -0.744138,0 -1.178219,0.46509 -0.428913,0.46509 -0.428913,1.30741 0,0.49092 0.139526,0.80098 0.139526,0.31006 0.470254,0.5426 0.232543,0.1602 0.511595,0.21704 0.279052,0.0517 0.620115,0.0517 0.403075,0 0.816485,-0.10852 0.41341,-0.10852 0.775144,-0.31523 0.0052,-0.10852 0.01033,-0.21187 0.01034,-0.10852 0.01034,-0.27388 z" />
    </g>
    <text
       style="font-style:normal;font-weight:normal;font-size:10.58329999999999949px;line-height:1.25;font-family:sans-serif;white-space:pre;shape-inside:url(#rect12);fill:#000000;fill-opacity:1;stroke:none;"
       id="text10"
       xml:space="preserve" />
    <path
       transform="scale(0.26458333)"
       style="fill:none;stroke-width:1.53044"
       id="path24"
       d="M 146.57872,689.53526 V 306.15933 H 409.81489 673.05106 V 689.53526 1072.9112 H 409.81489 146.57872 Z" />
    <rect
       y="65.19368"
       x="187.48244"
       height="5.2578001"
       id="rect913"
       style="fill:none;stroke:#000000;stroke-width:0.264999;stroke-miterlimit:4;stroke-dasharray:none;stroke-opacity:1" />
    <rect
       y="50.729298"
       x="56.012501"
       height="76.199997"
       width="55.880001"
       id="rect958"
       style="fill:none;stroke:#000000;stroke-width:0.264999;stroke-miterlimit:4;stroke-dasharray:none;stroke-opacity:1" />
    <circle
       r="2.4130001"
       style="fill:none;stroke:#000000;stroke-width:0.264999"
       id="path1050"
       cx="51.059498"
       cy="55.682301" />
    <circle
       r="2.4130001"
       cy="121.9763"
       cx="51.059498"
       id="path1050-3"
       style="fill:none;stroke:#000000;stroke-width:0.264999" />
    <circle
       cy="55.682301"
       cx="116.8455"
       id="path1050-36"
       style="fill:none;stroke:#000000;stroke-width:0.264999"
       r="2.4130001" />
    <circle
       r="2.4130001"
       style="fill:none;stroke:#000000;stroke-width:0.264999"
       id="path1050-36-3"
       cx="116.8455"
       cy="121.9763" />
    <path
       sodipodi:nodetypes="ccccccccccccccscccccccccscccc"
       d="m 153.79721,199.0344 c 0,2.37074 -1.92186,4.2926 -4.2926,4.2926 H 18.39531 c -2.37074,0 -4.2926,-1.92186 -4.2926,-4.2926 l -10e-6,-63.99923 C 4.9918895,121.30023 0.1325895,105.18406 0.1324995,88.702078 0.1326895,72.220278 4.9919795,56.1043 14.1027,42.369507 l 10e-6,-37.9444075 c 0,-2.370738 1.92186,-4.2926 4.2926,-4.2926 h 131.1093 c 2.37074,0 4.2926,1.921861 4.2926,4.2926 l 0.006,8.4071765 h -4.95578 v 0.0026 c -1.7525,0.0014 -3.17242,1.422503 -3.17242,3.175 0,1.752497 1.41992,3.1736 3.17242,3.175 v 0.0031 h 4.95577 v 23.181532 c 9.11072,13.734792 13.97001,29.85077 13.9702,46.332571 -9e-5,16.481981 -4.85938,32.598161 -13.9702,46.333101 v 23.84784 l -4.95577,-5.3e-4 v 0.003 c -1.7525,0.001 -3.17242,1.4225 -3.17242,3.175 0,1.7525 1.41992,3.174 3.17242,3.175 v 0.003 h 4.95577 z"
       style="fill:none;stroke:#000000;stroke-width:0.264999"
       id="path144-0" />
  </g>
</svg>
