<?xml version="1.0" encoding="UTF-8" standalone="no"?>
<svg
   xmlns:dc="http://purl.org/dc/elements/1.1/"
   xmlns:cc="http://creativecommons.org/ns#"
   xmlns:rdf="http://www.w3.org/1999/02/22-rdf-syntax-ns#"
   xmlns:svg="http://www.w3.org/2000/svg"
   xmlns="http://www.w3.org/2000/svg"
   xmlns:sodipodi="http://sodipodi.sourceforge.net/DTD/sodipodi-0.dtd"
   xmlns:inkscape="http://www.inkscape.org/namespaces/inkscape"
   width="8.5in"
   height="11in"
   viewBox="0 0 215.9 279.4"
   version="1.1"
   id="svg8"
   sodipodi:docname="omega_d2_blank.svg"
   inkscape:version="1.0 (4035a4f, 2020-05-01)">
  <defs
     id="defs2">
    <rect
       x="61.54931"
       y="235.66907"
       width="112.16552"
       height="8.0985939"
       id="rect889" />
    <rect
       x="16.602118"
       y="20.246485"
       width="41.707756"
       height="25.10564"
       id="rect12" />
  </defs>
  <sodipodi:namedview
     id="base"
     pagecolor="#ffffff"
     bordercolor="#666666"
     borderopacity="1.0"
     inkscape:pageopacity="0.0"
     inkscape:pageshadow="2"
     inkscape:zoom="0.35000692"
     inkscape:cx="1064.8187"
     inkscape:cy="550.68599"
     inkscape:document-units="in"
     inkscape:current-layer="layer1"
     inkscape:document-rotation="0"
     showgrid="false"
     inkscape:window-width="1680"
     inkscape:window-height="1005"
     inkscape:window-x="0"
     inkscape:window-y="23"
     inkscape:window-maximized="1"
     units="in" />
  <metadata
     id="metadata5">
    <rdf:RDF>
      <cc:Work
         rdf:about="">
        <dc:format>image/svg+xml</dc:format>
        <dc:type
           rdf:resource="http://purl.org/dc/dcmitype/StillImage" />
        <dc:title />
      </cc:Work>
    </rdf:RDF>
  </metadata>
  <g
     inkscape:label="Layer 1"
     inkscape:groupmode="layer"
     id="layer1">
    <text
       xml:space="preserve"
       id="text10"
       style="font-style:normal;font-weight:normal;font-size:10.58329999999999949px;line-height:1.25;font-family:sans-serif;white-space:pre;shape-inside:url(#rect12);fill:#000000;fill-opacity:1;stroke:none;" />
    <path
       d="M 146.57872,689.53526 V 306.15933 H 409.81489 673.05106 V 689.53526 1072.9112 H 409.81489 146.57872 Z"
       id="path24"
       style="fill:none;stroke-width:1.53044"
       transform="scale(0.26458333)" />
    <text
       xml:space="preserve"
       id="text887"
       style="font-style:normal;font-weight:normal;font-size:7.05555999999999983px;line-height:1.25;font-family:sans-serif;white-space:pre;shape-inside:url(#rect889);fill:#000000;fill-opacity:1;stroke:none;"><tspan
         x="61.548828"
         y="242.10692"><tspan
           style="font-size:7.05556px">Circle center is at 3.3x3.492</tspan></tspan></text>
    <rect
       style="fill:none;stroke:#000000;stroke-width:0.264999;stroke-miterlimit:4;stroke-dasharray:none;stroke-opacity:1"
       id="rect913"
       height="5.2578001"
       x="187.48244"
       y="65.19368" />
    <path
       id="path144-0"
       style="fill:none;stroke:#000000;stroke-width:0.264999"
       d="m 153.797,199.0344 c 0,2.37074 -1.92186,4.2926 -4.2926,4.2926 H 18.3951 c -2.37074,0 -4.2926,-1.92186 -4.2926,-4.2926 l -2e-6,-63.99923 C 4.9916805,121.30023 0.13238331,105.18406 0.13229166,88.702077 0.13248615,72.220277 4.991779,56.1043 14.102498,42.369507 l 2e-6,-37.9444072 c 0,-2.3707376 1.921862,-4.29260011 4.2926,-4.29260011 l 131.1093,-1.9e-7 c 2.37074,0 4.2926,1.9218617 4.2926,4.2925997 l 0.006,8.4071768 h -4.95577 v 0.0026 c -1.7525,0.0014 -3.17242,1.422503 -3.17242,3.175 0,1.752497 1.41992,3.1736 3.17242,3.175 v 0.0031 h 4.95577 v 23.181531 c 9.11072,13.734794 13.97001,29.850771 13.9702,46.33257 -9e-5,16.481973 -4.85938,32.598153 -13.9702,46.333093 v 23.84784 l -4.95577,-5.2e-4 v 0.003 c -1.7525,0.001 -3.17242,1.4225 -3.17242,3.175 0,1.7525 1.41992,3.174 3.17242,3.175 v 0.003 h 4.95577 z"
       sodipodi:nodetypes="ccccccccccccccscccccccccscccc" />
  </g>
</svg>
