<?xml version="1.0" encoding="UTF-8" standalone="no"?>
<svg
   xmlns:dc="http://purl.org/dc/elements/1.1/"
   xmlns:cc="http://creativecommons.org/ns#"
   xmlns:rdf="http://www.w3.org/1999/02/22-rdf-syntax-ns#"
   xmlns:svg="http://www.w3.org/2000/svg"
   xmlns="http://www.w3.org/2000/svg"
   xmlns:sodipodi="http://sodipodi.sourceforge.net/DTD/sodipodi-0.dtd"
   xmlns:inkscape="http://www.inkscape.org/namespaces/inkscape"
   inkscape:version="1.0 (4035a4f, 2020-05-01)"
   sodipodi:docname="Omega_neg_carrier_1.svg"
   id="svg8"
   version="1.1"
   viewBox="0 0 215.9 279.4"
   height="11in"
   width="8.5in">
  <defs
     id="defs2">
    <rect
       id="rect889"
       height="8.0985939"
       width="112.16552"
       y="235.66907"
       x="61.54931" />
    <rect
       id="rect12"
       height="25.10564"
       width="41.707756"
       y="20.246485"
       x="16.602118" />
  </defs>
  <sodipodi:namedview
     units="in"
     inkscape:window-maximized="1"
     inkscape:window-y="23"
     inkscape:window-x="0"
     inkscape:window-height="1005"
     inkscape:window-width="1680"
     showgrid="false"
     inkscape:document-rotation="0"
     inkscape:current-layer="layer1"
     inkscape:document-units="in"
     inkscape:cy="476.49638"
     inkscape:cx="-12.898106"
     inkscape:zoom="0.81295265"
     inkscape:pageshadow="2"
     inkscape:pageopacity="0.0"
     borderopacity="1.0"
     bordercolor="#666666"
     pagecolor="#ffffff"
     id="base" />
  <metadata
     id="metadata5">
    <rdf:RDF>
      <cc:Work
         rdf:about="">
        <dc:format>image/svg+xml</dc:format>
        <dc:type
           rdf:resource="http://purl.org/dc/dcmitype/StillImage" />
        <dc:title></dc:title>
      </cc:Work>
    </rdf:RDF>
  </metadata>
  <g
     id="layer1"
     inkscape:groupmode="layer"
     inkscape:label="Layer 1">
    <text
       style="font-style:normal;font-weight:normal;font-size:10.58329999999999949px;line-height:1.25;font-family:sans-serif;white-space:pre;shape-inside:url(#rect12);fill:#000000;fill-opacity:1;stroke:none;"
       id="text10"
       xml:space="preserve" />
    <path
       transform="scale(0.26458333)"
       d="M 53.300781 0.5 L 53.300781 160.13672 A 316.8 316.8 0 0 0 0.5 335.25195 A 316.8 316.8 0 0 0 53.300781 510.36914 L 53.300781 768.5 L 581.30078 768.5 L 581.30078 624.52344 L 562.57031 624.52344 L 562.57031 624.51172 A 12 12 0 0 1 550.58008 612.51172 A 12 12 0 0 1 562.57031 600.51172 L 562.57031 600.5 L 581.30078 600.50195 L 581.30078 510.36914 A 316.8 316.8 0 0 0 634.10156 335.25195 A 316.8 316.8 0 0 0 581.30078 160.13672 L 581.30078 72.521484 L 562.57031 72.521484 L 562.57031 72.509766 A 12 12 0 0 1 550.58008 60.509766 A 12 12 0 0 1 562.57031 48.509766 L 562.57031 48.5 L 581.30078 48.5 L 581.30078 0.5 L 53.300781 0.5 z "
       style="fill:none;stroke:#000000;stroke-width:1.00157;stroke-miterlimit:4;stroke-dasharray:none;stroke-opacity:1"
       id="rect22" />
    <path
       transform="scale(0.26458333)"
       style="fill:none;stroke-width:1.53044"
       id="path24"
       d="M 146.57872,689.53526 V 306.15933 H 409.81489 673.05106 V 689.53526 1072.9112 H 409.81489 146.57872 Z" />
    <text
       style="font-style:normal;font-weight:normal;font-size:7.05555999999999983px;line-height:1.25;font-family:sans-serif;white-space:pre;shape-inside:url(#rect889);fill:#000000;fill-opacity:1;stroke:none;"
       id="text887"
       xml:space="preserve"><tspan
         x="61.548828"
         y="242.10692"><tspan
           style="font-size:7.05556px">Circle center is at 3.3x3.492</tspan></tspan></text>
    <rect
       y="65.19368"
       x="187.48244"
       height="5.2578001"
       id="rect913"
       style="fill:none;stroke:#000000;stroke-width:0.264999;stroke-miterlimit:4;stroke-dasharray:none;stroke-opacity:1" />
  </g>
</svg>
