<?xml version="1.0" encoding="UTF-8" standalone="no"?>
<svg
   xmlns:dc="http://purl.org/dc/elements/1.1/"
   xmlns:cc="http://creativecommons.org/ns#"
   xmlns:rdf="http://www.w3.org/1999/02/22-rdf-syntax-ns#"
   xmlns:svg="http://www.w3.org/2000/svg"
   xmlns="http://www.w3.org/2000/svg"
   xmlns:sodipodi="http://sodipodi.sourceforge.net/DTD/sodipodi-0.dtd"
   xmlns:inkscape="http://www.inkscape.org/namespaces/inkscape"
   width="8.5in"
   height="11in"
   viewBox="0 0 215.9 279.4"
   version="1.1"
   id="svg8"
   sodipodi:docname="Omega_6x9_base.svg"
   inkscape:version="1.0 (4035a4f, 2020-05-01)">
  <defs
     id="defs2">
    <rect
       x="61.54931"
       y="235.66907"
       width="112.16552"
       height="8.0985939"
       id="rect889" />
    <rect
       x="16.602118"
       y="20.246485"
       width="41.707756"
       height="25.10564"
       id="rect12" />
  </defs>
  <sodipodi:namedview
     id="base"
     pagecolor="#ffffff"
     bordercolor="#666666"
     borderopacity="1.0"
     inkscape:pageopacity="0.0"
     inkscape:pageshadow="2"
     inkscape:zoom="0.72375147"
     inkscape:cx="149.0894"
     inkscape:cy="532.30921"
     inkscape:document-units="in"
     inkscape:current-layer="layer1"
     inkscape:document-rotation="0"
     showgrid="false"
     inkscape:window-width="1252"
     inkscape:window-height="943"
     inkscape:window-x="0"
     inkscape:window-y="23"
     inkscape:window-maximized="0"
     units="in" />
  <metadata
     id="metadata5">
    <rdf:RDF>
      <cc:Work
         rdf:about="">
        <dc:format>image/svg+xml</dc:format>
        <dc:type
           rdf:resource="http://purl.org/dc/dcmitype/StillImage" />
        <dc:title />
      </cc:Work>
    </rdf:RDF>
  </metadata>
  <g
     inkscape:label="Layer 1"
     inkscape:groupmode="layer"
     id="layer1">
    <text
       xml:space="preserve"
       id="text10"
       style="font-style:normal;font-weight:normal;font-size:10.58329999999999949px;line-height:1.25;font-family:sans-serif;white-space:pre;shape-inside:url(#rect12);fill:#000000;fill-opacity:1;stroke:none;" />
    <path
       id="rect22"
       style="fill:none;stroke:#000000;stroke-width:1.00157;stroke-miterlimit:4;stroke-dasharray:none;stroke-opacity:1"
       d="M 53.300781 0.5 L 53.300781 160.13672 A 316.8 316.8 0 0 0 0.5 335.25195 A 316.8 316.8 0 0 0 53.300781 510.36914 L 53.300781 768.5 L 581.30078 768.5 L 581.30078 624.52344 L 562.57031 624.52344 L 562.57031 624.51172 A 12 12 0 0 1 550.58008 612.51172 A 12 12 0 0 1 562.57031 600.51172 L 562.57031 600.5 L 581.30078 600.50195 L 581.30078 510.36914 A 316.8 316.8 0 0 0 634.10156 335.25195 A 316.8 316.8 0 0 0 581.30078 160.13672 L 581.30078 72.521484 L 562.57031 72.521484 L 562.57031 72.509766 A 12 12 0 0 1 550.58008 60.509766 A 12 12 0 0 1 562.57031 48.509766 L 562.57031 48.5 L 581.30078 48.5 L 581.30078 0.5 L 53.300781 0.5 z "
       transform="scale(0.26458333)" />
    <path
       d="M 146.57872,689.53526 V 306.15933 H 409.81489 673.05106 V 689.53526 1072.9112 H 409.81489 146.57872 Z"
       id="path24"
       style="fill:none;stroke-width:1.53044"
       transform="scale(0.26458333)" />
    <rect
       style="fill:none;stroke:#000000;stroke-width:0.264999;stroke-miterlimit:4;stroke-dasharray:none;stroke-opacity:1"
       id="rect913"
       height="5.2578001"
       x="187.48244"
       y="65.19368" />
    <rect
       style="fill:none;stroke:#000000;stroke-width:0.264999;stroke-miterlimit:4;stroke-dasharray:none;stroke-opacity:1"
       id="rect958"
       width="55.880001"
       height="76.199997"
       x="56.012501"
       y="50.729298" />
    <circle
       r="2.4130001"
       cy="55.682301"
       cx="51.059498"
       id="path1050"
       style="fill:none;stroke:#000000;stroke-width:0.264999" />
    <circle
       style="fill:none;stroke:#000000;stroke-width:0.264999"
       id="path1050-3"
       cx="51.059498"
       cy="121.9763"
       r="2.4130001" />
    <circle
       r="2.4130001"
       style="fill:none;stroke:#000000;stroke-width:0.264999"
       id="path1050-36"
       cx="116.8455"
       cy="55.682301" />
    <circle
       cy="121.9763"
       cx="116.8455"
       id="path1050-36-3"
       style="fill:none;stroke:#000000;stroke-width:0.264999"
       r="2.4130001" />
  </g>
</svg>
