<?xml version="1.0" encoding="UTF-8" standalone="no"?>
<svg
   xmlns:dc="http://purl.org/dc/elements/1.1/"
   xmlns:cc="http://creativecommons.org/ns#"
   xmlns:rdf="http://www.w3.org/1999/02/22-rdf-syntax-ns#"
   xmlns:svg="http://www.w3.org/2000/svg"
   xmlns="http://www.w3.org/2000/svg"
   xmlns:sodipodi="http://sodipodi.sourceforge.net/DTD/sodipodi-0.dtd"
   xmlns:inkscape="http://www.inkscape.org/namespaces/inkscape"
   inkscape:version="1.0 (4035a4f, 2020-05-01)"
   sodipodi:docname="omega_d2_6x9.svg"
   id="svg8"
   version="1.1"
   viewBox="0 0 215.9 279.4"
   height="11in"
   width="8.5in">
  <defs
     id="defs2">
    <rect
       id="rect889"
       height="8.0985939"
       width="112.16552"
       y="235.66907"
       x="61.54931" />
    <rect
       id="rect12"
       height="25.10564"
       width="41.707756"
       y="20.246485"
       x="16.602118" />
  </defs>
  <sodipodi:namedview
     units="in"
     inkscape:window-maximized="0"
     inkscape:window-y="23"
     inkscape:window-x="0"
     inkscape:window-height="943"
     inkscape:window-width="1252"
     showgrid="false"
     inkscape:document-rotation="0"
     inkscape:current-layer="layer1"
     inkscape:document-units="in"
     inkscape:cy="409.33882"
     inkscape:cx="175.34151"
     inkscape:zoom="0.72375147"
     inkscape:pageshadow="2"
     inkscape:pageopacity="0.0"
     borderopacity="1.0"
     bordercolor="#666666"
     pagecolor="#ffffff"
     id="base" />
  <metadata
     id="metadata5">
    <rdf:RDF>
      <cc:Work
         rdf:about="">
        <dc:format>image/svg+xml</dc:format>
        <dc:type
           rdf:resource="http://purl.org/dc/dcmitype/StillImage" />
        <dc:title />
      </cc:Work>
    </rdf:RDF>
  </metadata>
  <g
     id="layer1"
     inkscape:groupmode="layer"
     inkscape:label="Layer 1">
    <text
       style="font-style:normal;font-weight:normal;font-size:10.58329999999999949px;line-height:1.25;font-family:sans-serif;white-space:pre;shape-inside:url(#rect12);fill:#000000;fill-opacity:1;stroke:none;"
       id="text10"
       xml:space="preserve" />
    <path
       transform="scale(0.26458333)"
       style="fill:none;stroke-width:1.53044"
       id="path24"
       d="M 146.57872,689.53526 V 306.15933 H 409.81489 673.05106 V 689.53526 1072.9112 H 409.81489 146.57872 Z" />
    <rect
       y="65.19368"
       x="187.48244"
       height="5.2578001"
       id="rect913"
       style="fill:none;stroke:#000000;stroke-width:0.264999;stroke-miterlimit:4;stroke-dasharray:none;stroke-opacity:1" />
    <rect
       y="50.729298"
       x="56.012501"
       height="76.199997"
       width="55.880001"
       id="rect958"
       style="fill:none;stroke:#000000;stroke-width:0.264999;stroke-miterlimit:4;stroke-dasharray:none;stroke-opacity:1" />
    <circle
       r="2.4130001"
       style="fill:none;stroke:#000000;stroke-width:0.264999"
       id="path1050"
       cx="51.059498"
       cy="55.682301" />
    <circle
       r="2.4130001"
       cy="121.9763"
       cx="51.059498"
       id="path1050-3"
       style="fill:none;stroke:#000000;stroke-width:0.264999" />
    <circle
       cy="55.682301"
       cx="116.8455"
       id="path1050-36"
       style="fill:none;stroke:#000000;stroke-width:0.264999"
       r="2.4130001" />
    <circle
       r="2.4130001"
       style="fill:none;stroke:#000000;stroke-width:0.264999"
       id="path1050-36-3"
       cx="116.8455"
       cy="121.9763" />
    <path
       sodipodi:nodetypes="ccccccccccccccscccccccccscccc"
       d="m 153.79721,199.0344 c 0,2.37074 -1.92186,4.2926 -4.2926,4.2926 H 18.39531 c -2.37074,0 -4.2926,-1.92186 -4.2926,-4.2926 l -10e-6,-63.99923 C 4.9918895,121.30023 0.1325895,105.18406 0.1324995,88.702078 0.1326895,72.220278 4.9919795,56.1043 14.1027,42.369507 l 10e-6,-37.9444075 c 0,-2.370738 1.92186,-4.2926 4.2926,-4.2926 h 131.1093 c 2.37074,0 4.2926,1.921861 4.2926,4.2926 l 0.006,8.4071765 h -4.95578 v 0.0026 c -1.7525,0.0014 -3.17242,1.422503 -3.17242,3.175 0,1.752497 1.41992,3.1736 3.17242,3.175 v 0.0031 h 4.95577 v 23.181532 c 9.11072,13.734792 13.97001,29.85077 13.9702,46.332571 -9e-5,16.481981 -4.85938,32.598161 -13.9702,46.333101 v 23.84784 l -4.95577,-5.3e-4 v 0.003 c -1.7525,0.001 -3.17242,1.4225 -3.17242,3.175 0,1.7525 1.41992,3.174 3.17242,3.175 v 0.003 h 4.95577 z"
       style="fill:none;stroke:#000000;stroke-width:0.264999"
       id="path144-0" />
  </g>
</svg>
